<?xml version="1.0" standalone="no"?>
<!DOCTYPE svg PUBLIC "-//W3C//DTD SVG 20010904//EN"
 "http://www.w3.org/TR/2001/REC-SVG-20010904/DTD/svg10.dtd">
<svg version="1.0" xmlns="http://www.w3.org/2000/svg"
 width="512.000000pt" height="512.000000pt" viewBox="0 0 512.000000 512.000000"
 preserveAspectRatio="xMidYMid meet">
<metadata>
Created by potrace 1.16, written by Peter Selinger 2001-2019
</metadata>
<g transform="translate(0.000000,512.000000) scale(0.100000,-0.100000)"
fill="#000000" stroke="none">
<path d="M2295 5114 c-402 -43 -817 -194 -1170 -427 -573 -379 -969 -995
-1097 -1704 -20 -115 -23 -159 -23 -423 0 -264 3 -308 23 -423 96 -534 349
-1025 716 -1393 372 -371 884 -631 1421 -721 159 -26 631 -26 790 0 537 90
1049 350 1420 722 372 371 632 883 722 1420 26 159 26 631 0 790 -90 537 -350
1049 -721 1421 -367 366 -860 620 -1387 714 -104 19 -168 23 -389 25 -146 2
-283 1 -305 -1z m1420 -3184 l-645 -645 -175 175 -174 175 116 123 116 123 59
-58 58 -58 403 403 402 402 -402 402 -403 403 -140 -140 -140 -140 272 -272
273 -273 -120 -120 -120 -120 -392 392 -393 393 382 382 383 383 642 -642 643
-643 -645 -645z m-1485 1725 l175 -175 -120 -120 -120 -120 -57 57 -58 58
-403 -403 -402 -402 402 -402 403 -403 140 140 140 140 -272 272 -273 273 120
120 120 120 392 -392 393 -393 -382 -382 -383 -383 -642 642 -643 643 642 642
c354 354 645 643 648 643 3 0 84 -79 180 -175z"/>
</g>
</svg>
